<svg width="720" height="640" xmlns="http://www.w3.org/2000/svg" version="1.1">
 <title>Logo_quiz</title>
 <g id="Layer_1">
  <title>Layer 1</title>
  <path transform="rotate(-10.0487 340.703 214.401)" stroke="#dd4a25" id="svg_10" d="m594.30765,217.75925c-142.47049,7.87606 -564.86216,0 -565.20003,-0.00741c0.33788,0.00741 13.39269,-3.49306 12.75855,-3.50047c0.63414,0.00741 530.11402,-6.70183 529.47989,-6.70923c0.63413,0.00741 165.43208,2.34105 22.96159,10.21711z" opacity="NaN" stroke-width="3" fill="#FFF093"/>
  <text transform="rotate(-10.5524 317.57 162.506)" font-weight="bold" xml:space="preserve" text-anchor="start" font-family="'Oxanium'" font-size="137" id="svg_1" y="202.00564" x="19.72571" stroke-width="4" stroke="#FFF093" fill="#dd4a25">let's quiz!</text>
  <path transform="rotate(-8.28963 215.69 472.583)" id="svg_2" d="m247.9144,402.20031l-124.22828,63.71275l122.69253,21.88835l-113.40364,68.40112l-45.78562,-11.55057l32.47414,65.93116l129.05536,-28.76537l-54.48925,-12.02379l147.96225,-98.24613l-135.2542,-17.80644l130.60981,-66.38969l-74.50232,-9.96807l81.14419,-42.19412l-29.80893,-0.60639l-125.91972,57.8858l59.45366,9.73138l0.00001,-0.00002z" stroke-width="10" stroke="#FFF093" fill="#dd4a25"/>
  <path transform="rotate(5.33058 308.259 251.885)" id="svg_5" d="m220.25818,233.00013l67.2265,0l20.7735,-61.11473l20.77352,61.11473l67.22649,0l-54.38728,37.77054l20.77458,61.11473l-54.38731,-37.77157l-54.38729,37.77157l20.77459,-61.11473l-54.3873,-37.77054z" stroke-width="5" stroke="#dd4a25" fill="#FFF093"/>
  <path transform="rotate(-25.7645 664.836 65.0855)" stroke-width="3" stroke="#dd4a25" id="svg_9" d="m620.49386,55.56865l33.87743,0l10.46839,-30.79754l10.46839,30.79754l33.87743,0l-27.40737,19.0337l10.46893,30.79753l-27.40738,-19.03422l-27.40738,19.03422l10.46894,-30.79753l-27.40738,-19.0337z" fill="#FFF093"/>
  <path transform="rotate(-50.4993 193.837 132.068)" stroke="#dd4a25" stroke-width="3" id="svg_7" d="m148.52619,122.03809l34.61424,0l10.69607,-32.45756l10.69607,32.45756l34.61424,0l-28.00346,20.05963l10.69662,32.45755l-28.00347,-20.06018l-28.00347,20.06018l10.69663,-32.45755l-28.00347,-20.05963z" fill="#FFF093"/>
  <path transform="rotate(86.9396 484.68 69.4387)" stroke-width="3" stroke="#FFF093" id="svg_8" d="m440.33402,59.92188l33.87743,0l10.46839,-30.79754l10.46839,30.79754l33.87743,0l-27.40737,19.0337l10.46893,30.79753l-27.40738,-19.03422l-27.40738,19.03422l10.46894,-30.79753l-27.40738,-19.0337z" fill="#dd4a25"/>
  <path transform="rotate(26.4127 155.619 293.244)" stroke-width="3" stroke="#FFF093" id="svg_6" d="m111.2726,283.72672l33.87743,0l10.46839,-30.79754l10.46839,30.79754l33.87743,0l-27.40737,19.0337l10.46893,30.79753l-27.40738,-19.03422l-27.40738,19.03422l10.46894,-30.79753l-27.40738,-19.0337z" fill="#dd4a25"/>
  <path transform="rotate(23.6752 604.371 138.926)" stroke-width="4" stroke="#dd4a25" id="svg_4" d="m577.75839,133.21459l20.33073,0l6.28235,-18.4824l6.28236,18.4824l20.33073,0l-16.44788,11.42262l6.28268,18.4824l-16.44789,-11.42293l-16.44788,11.42293l6.28268,-18.4824l-16.44788,-11.42262z" fill="#FFF093"/>
 </g>
</svg>